<?xml version="1.0" standalone="no"?>
<!DOCTYPE svg PUBLIC "-//W3C//DTD SVG 20010904//EN"
 "http://www.w3.org/TR/2001/REC-SVG-20010904/DTD/svg10.dtd">
<svg version="1.0" xmlns="http://www.w3.org/2000/svg"
 width="512.000000pt" height="512.000000pt" viewBox="0 0 512.000000 512.000000"
 preserveAspectRatio="xMidYMid meet">
<metadata>
Created by potrace 1.14, written by Peter Selinger 2001-2017
</metadata>
<g transform="translate(0.000000,512.000000) scale(0.100000,-0.100000)"
fill="#000000" stroke="none">
<path d="M439 5091 l-29 -29 0 -2481 c0 -1746 3 -2487 11 -2503 6 -13 27 -35
47 -51 l36 -27 1870 2 c1754 3 1875 4 1931 21 200 59 322 178 381 373 18 56
19 173 21 2362 l3 2303 -29 30 -29 29 -2092 0 -2092 0 -29 -29z m4099 -2388
l-3 -2248 -24 -59 c-44 -111 -141 -188 -269 -215 -38 -8 -569 -11 -1857 -11
l-1805 0 0 2390 0 2390 1980 0 1980 0 -2 -2247z"/>
<path d="M2457 4693 c-4 -3 -7 -19 -7 -34 0 -23 -6 -29 -37 -39 -57 -18 -129
-67 -173 -118 -55 -62 -70 -119 -70 -270 0 -120 -1 -126 -25 -148 -19 -17 -25
-33 -25 -64 0 -55 27 -105 161 -307 l49 -73 -21 -52 c-11 -29 -26 -59 -32 -67
-21 -25 -95 -52 -265 -96 -194 -50 -203 -53 -259 -93 -60 -45 -116 -161 -121
-253 -4 -62 -2 -70 21 -93 l26 -26 191 0 c180 0 190 1 190 19 0 11 -11 95 -24
188 -14 92 -26 181 -28 196 -3 29 -2 29 87 52 50 13 107 30 127 39 50 21 54
21 67 -13 17 -39 87 -109 136 -134 56 -29 176 -35 243 -13 64 22 133 82 157
138 10 24 19 44 20 45 1 1 28 -8 60 -21 33 -13 95 -32 137 -41 l78 -17 -5 -36
c-5 -37 -35 -370 -35 -391 0 -8 54 -11 180 -11 181 0 181 0 207 26 23 23 25
31 21 93 -5 92 -61 208 -121 253 -56 40 -65 43 -257 93 -233 60 -254 70 -311
148 l-28 39 38 51 c59 79 171 265 187 310 20 56 18 74 -11 103 -25 25 -26 29
-23 152 2 142 -7 186 -52 253 -52 80 -197 171 -322 205 -56 15 -120 18 -131 7z
m153 -464 c84 -21 152 -32 207 -33 48 0 83 -5 83 -11 0 -5 -4 -26 -9 -45 -24
-94 -26 -89 21 -92 42 -3 43 -4 41 -36 -1 -22 -28 -78 -80 -164 -129 -216
-190 -268 -312 -268 -71 0 -120 21 -172 72 -43 43 -199 282 -216 331 -18 52
-4 77 43 77 l35 0 -7 73 c-4 39 -8 78 -8 86 -2 22 68 39 164 40 64 1 116 -7
210 -30z m-143 -685 c67 -23 153 -18 217 15 l56 28 37 -50 36 -49 -19 -36
c-20 -38 -85 -90 -137 -109 -47 -17 -136 -15 -193 4 -51 17 -154 108 -154 136
0 8 11 40 25 71 l25 57 35 -27 c19 -14 52 -32 72 -40z"/>
<path d="M1074 2588 c-24 -11 -44 -48 -44 -79 0 -11 13 -34 29 -50 l29 -29
652 0 652 0 29 29 c45 45 37 100 -18 129 -29 16 -1297 16 -1329 0z"/>
<path d="M2635 2575 c-47 -46 -25 -125 37 -140 13 -3 335 -4 716 -3 l694 3 19
24 c29 36 25 94 -7 120 -26 21 -34 21 -731 21 l-704 0 -24 -25z"/>
<path d="M1073 1968 c-11 -13 -24 -33 -27 -45 -8 -26 16 -78 39 -87 9 -3 686
-6 1504 -6 l1488 0 21 23 c30 32 29 87 -1 115 l-23 22 -1490 0 -1491 0 -20
-22z"/>
<path d="M1084 1380 c-55 -22 -70 -95 -29 -135 l24 -25 1501 0 1501 0 24 25
c34 33 34 83 -1 116 l-26 24 -1486 2 c-825 1 -1497 -2 -1508 -7z"/>
<path d="M3295 755 c-31 -30 -33 -83 -6 -116 l19 -24 387 0 387 0 19 24 c29
36 25 94 -7 120 -26 20 -37 21 -401 21 l-374 0 -24 -25z"/>
</g>
</svg>
